<svg xmlns="http://www.w3.org/2000/svg" viewBox="0 0 200 232" role="img" aria-label="Gesture 5: All five fingers open">
  <title>Gesture 5 — All five fingers open</title>
  <defs>
    <pattern id="grid5" width="16" height="16" patternUnits="userSpaceOnUse">
      <path d="M 16 0 L 0 0 0 16" fill="none" stroke="rgba(125,249,255,0.16)" stroke-width="0.6"/>
    </pattern>
  </defs>
  <rect x="0" y="0" width="200" height="232" fill="url(#grid5)" rx="12"/>
  <rect x="0.75" y="0.75" width="198.5" height="230.5" rx="12" fill="none" stroke="rgba(125,249,255,0.16)" stroke-width="1.5"/>
  <!-- dimension ticks -->
  <line x1="14" y1="20" x2="14" y2="212" class="dimline"/>
  <line x1="186" y1="20" x2="186" y2="212" class="dimline"/>
  <text x="100" y="16" text-anchor="middle" class="badge">G-05</text>
  <!-- wrist -->
  <rect x="76" y="178" width="48" height="34" rx="6" class="palm"/>
  <line x1="76" y1="190" x2="124" y2="190" class="wristband"/>
  <line x1="76" y1="200" x2="124" y2="200" class="wristband faint"/>
  <!-- fingers (behind palm top edge) -->
  
      <g class="finger-open">
        <rect x="60" y="40" width="19" height="86" rx="9.5" class="open"/>
        <line x1="63" y1="78.7" x2="76" y2="78.7" class="joint"/>
        <line x1="63" y1="59.4" x2="76" y2="59.4" class="joint faint"/>
        <circle cx="69.5" cy="46" r="1.6" class="tipdot"/>
      </g>

      <g class="finger-open">
        <rect x="83" y="28" width="20" height="98" rx="10.0" class="open"/>
        <line x1="86" y1="72.1" x2="100" y2="72.1" class="joint"/>
        <line x1="86" y1="50.0" x2="100" y2="50.0" class="joint faint"/>
        <circle cx="93.0" cy="34" r="1.6" class="tipdot"/>
      </g>

      <g class="finger-open">
        <rect x="107" y="34" width="20" height="92" rx="10.0" class="open"/>
        <line x1="110" y1="75.4" x2="124" y2="75.4" class="joint"/>
        <line x1="110" y1="54.7" x2="124" y2="54.7" class="joint faint"/>
        <circle cx="117.0" cy="40" r="1.6" class="tipdot"/>
      </g>

      <g class="finger-open">
        <rect x="131" y="54" width="17" height="72" rx="8.5" class="open"/>
        <line x1="134" y1="86.4" x2="145" y2="86.4" class="joint"/>
        <line x1="134" y1="70.2" x2="145" y2="70.2" class="joint faint"/>
        <circle cx="139.5" cy="60" r="1.6" class="tipdot"/>
      </g>
  <!-- palm -->
  <rect x="58" y="112" width="84" height="68" rx="16" class="palm"/>
  <path d="M 72 128 Q 100 122 128 128" class="palmline"/>
  <path d="M 74 144 Q 100 139 126 144" class="palmline faint"/>
  <circle cx="100" cy="158" r="2" class="knuckle"/>
  
      <g class="thumb-open">
        <g transform="rotate(-38 60 152)">
          <rect x="14" y="143" width="50" height="19" rx="9.5" class="open"/>
          <line x1="40" y1="146" x2="40" y2="159" class="joint"/>
          <circle cx="20" cy="152.5" r="1.6" class="tipdot"/>
        </g>
        <circle cx="60" cy="152" r="3.2" class="knuckle"/>
      </g>
  <style>
    .open { fill: rgba(125,249,255,0.10); stroke: #7df9ff; stroke-width: 2.4; }
    .folded { fill: rgba(148,163,184,0.10); stroke: rgba(148,163,184,0.85); stroke-width: 2; stroke-dasharray: 5 3; }
    .halfbody { fill: rgba(251,191,36,0.10); stroke: #fbbf24; stroke-width: 2.4; }
    .palm { fill: rgba(125,249,255,0.05); stroke: #7df9ff; stroke-width: 2.4; }
    .joint { stroke: #7df9ff; stroke-width: 1.4; opacity: .8; }
    .joint.faint, .foldarc.faint, .wristband.faint, .palmline.faint { opacity: .35; }
    .foldarc { fill: none; stroke: rgba(148,163,184,0.9); stroke-width: 1.5; }
    .foldmark { stroke: #fbbf24; stroke-width: 2; }
    .foldchev { fill: none; stroke: #fbbf24; stroke-width: 1.8; }
    .foldthumb { fill: none; stroke: rgba(148,163,184,0.9); stroke-width: 2.2; }
    .thumbpad { fill: rgba(148,163,184,0.10); stroke: rgba(148,163,184,0.85); stroke-width: 1.6; }
    .tipdot { fill: #7df9ff; }
    .tipdot.dim { fill: #fbbf24; }
    .knuckle { fill: none; stroke: #7df9ff; stroke-width: 1.6; }
    .palmline { fill: none; stroke: #7df9ff; stroke-width: 1.2; opacity: .55; }
    .wristband { stroke: #7df9ff; stroke-width: 1.4; opacity: .7; }
    .dimline { stroke: rgba(125,249,255,0.16); stroke-width: 1; }
    .badge { fill: #7df9ff; font: 700 11px ui-monospace, Menlo, Consolas, monospace; letter-spacing: 2px; }
  </style>
</svg>
